<svg width="48" height="48" viewBox="0 0 48 48" fill="none" xmlns="http://www.w3.org/2000/svg">
  <rect width="48" height="48" rx="8" fill="#4F46E5"/>
  <path d="M24 12C29.5228 12 34 16.4772 34 22C34 27.5228 29.5228 32 24 32C18.4772 32 14 27.5228 14 22C14 16.4772 18.4772 12 24 12Z" fill="white" fill-opacity="0.2"/>
  <path d="M24 16C27.3137 16 30 18.6863 30 22C30 25.3137 27.3137 28 24 28C20.6863 28 18 25.3137 18 22C18 18.6863 20.6863 16 24 16Z" fill="white"/>
  <path d="M24 20C25.1046 20 26 20.8954 26 22C26 23.1046 25.1046 24 24 24C22.8954 24 22 23.1046 22 22C22 20.8954 22.8954 20 24 20Z" fill="#4F46E5"/>
  <path d="M16 36H32C33.1046 36 34 35.1046 34 34C34 32.8954 33.1046 32 32 32H16C14.8954 32 14 32.8954 14 34C14 35.1046 14.8954 36 16 36Z" fill="white" fill-opacity="0.8"/>
  <path d="M20 40H28C28.5523 40 29 39.5523 29 39C29 38.4477 28.5523 38 28 38H20C19.4477 38 19 38.4477 19 39C19 39.5523 19.4477 40 20 40Z" fill="white" fill-opacity="0.6"/>
</svg>
