<svg width="100" height="100" viewBox="0 0 100 100" fill="none" xmlns="http://www.w3.org/2000/svg">
  <rect width="100" height="100" rx="12" fill="#F5F5F5"/>
  <path d="M50 30C59.941 30 68 38.059 68 48C68 57.941 59.941 66 50 66C40.059 66 32 57.941 32 48C32 38.059 40.059 30 50 30ZM50 34C42.268 34 36 40.268 36 48C36 55.732 42.268 62 50 62C57.732 62 64 55.732 64 48C64 40.268 57.732 34 50 34ZM50 38C55.523 38 60 42.477 60 48C60 53.523 55.523 58 50 58C44.477 58 40 53.523 40 48C40 42.477 44.477 38 50 38Z" fill="#CCCCCC"/>
  <path d="M28 78V72H72V78H28Z" fill="#CCCCCC"/>
  <path d="M34 66V60H42V66H34Z" fill="#CCCCCC"/>
  <path d="M58 66V60H66V66H58Z" fill="#CCCCCC"/>
</svg> 