<svg width="150" height="60" viewBox="0 0 150 60" fill="none" xmlns="http://www.w3.org/2000/svg">
  <rect width="150" height="60" rx="4" fill="#F1F5F9"/>
  <path d="M39.1464 30.4001C39.1464 26.1501 35.6964 22.7001 31.4464 22.7001C27.1964 22.7001 23.7464 26.1501 23.7464 30.4001C23.7464 34.6501 27.1964 38.1001 31.4464 38.1001C35.6964 38.1001 39.1464 34.6501 39.1464 30.4001Z" fill="#64748B"/>
  <path d="M45.8964 22.7001V38.1001H48.6464V31.9001H54.6464V29.1501H48.6464V25.4501H55.4464V22.7001H45.8964Z" fill="#64748B"/>
  <path d="M67.3461 22.7001L62.0961 38.1001H65.0961L66.0961 34.8501H71.7461L72.7461 38.1001H75.7461L70.4961 22.7001H67.3461ZM66.8461 32.1001L68.8961 25.9501L70.9461 32.1001H66.8461Z" fill="#64748B"/>
  <path d="M92.6955 22.7001H89.6955L86.1955 28.4001L82.6955 22.7001H79.6955L84.6955 30.4001L79.6955 38.1001H82.6955L86.1955 32.4001L89.6955 38.1001H92.6955L87.6955 30.4001L92.6955 22.7001Z" fill="#64748B"/>
  <path d="M104.445 22.7001H94.8945V38.1001H104.445V35.3501H97.6445V31.9001H103.645V29.1501H97.6445V25.4501H104.445V22.7001Z" fill="#64748B"/>
  <path d="M115.643 22.7001H106.093V25.4501H109.343V38.1001H112.393V25.4501H115.643V22.7001Z" fill="#64748B"/>
</svg> 