<svg width="800" height="400" viewBox="0 0 800 400" fill="none" xmlns="http://www.w3.org/2000/svg">
  <!-- Background -->
  <rect width="800" height="400" fill="#1E293B" />
  
  <!-- Header -->
  <rect y="0" width="800" height="40" fill="#0F172A" />
  <rect x="20" y="12" width="120" height="16" rx="2" fill="#3B82F6" />
  <rect x="660" y="12" width="40" height="16" rx="2" fill="#475569" />
  <rect x="710" y="12" width="40" height="16" rx="2" fill="#475569" />
  <rect x="760" y="12" width="20" height="16" rx="2" fill="#475569" />
  
  <!-- Left sidebar -->
  <rect x="0" y="40" width="200" height="360" fill="#1E293B" />
  <rect x="20" y="60" width="160" height="30" rx="4" fill="#334155" />
  <rect x="20" y="100" width="160" height="20" rx="4" fill="#334155" opacity="0.8" />
  <rect x="20" y="130" width="160" height="20" rx="4" fill="#334155" opacity="0.8" />
  <rect x="20" y="160" width="160" height="20" rx="4" fill="#334155" opacity="0.8" />
  <rect x="20" y="190" width="160" height="20" rx="4" fill="#334155" opacity="0.8" />
  
  <!-- Main content - price chart -->
  <rect x="220" y="60" width="560" height="140" rx="4" fill="#334155" />
  
  <!-- Chart lines -->
  <path d="M240 150 L280 140 L320 160 L360 130 L400 120 L440 140 L480 100 L520 80 L560 110 L600 90 L640 70 L680 100 L720 80 L760 110" stroke="#10B981" stroke-width="2" />
  <path d="M240 160 L280 170 L320 180 L360 160 L400 170 L440 190 L480 170 L520 150 L560 170 L600 150 L640 130 L680 150 L720 140 L760 160" stroke="#FF0000" stroke-opacity="0.5" stroke-width="2" />
  
  <!-- Chart labels -->
  <rect x="720" y="70" width="40" height="16" rx="2" fill="#0EA5E9" fill-opacity="0.3" />
  <rect x="720" y="90" width="40" height="16" rx="2" fill="#EF4444" fill-opacity="0.3" />
  
  <!-- Order book -->
  <rect x="220" y="220" width="270" height="160" rx="4" fill="#334155" />
  
  <!-- Buy orders -->
  <rect x="235" y="240" width="240" height="12" rx="2" fill="#10B981" fill-opacity="0.2" />
  <rect x="235" y="258" width="180" height="12" rx="2" fill="#10B981" fill-opacity="0.2" />
  <rect x="235" y="276" width="150" height="12" rx="2" fill="#10B981" fill-opacity="0.2" />
  <rect x="235" y="294" width="120" height="12" rx="2" fill="#10B981" fill-opacity="0.2" />
  <rect x="235" y="312" width="90" height="12" rx="2" fill="#10B981" fill-opacity="0.2" />
  
  <!-- Sell orders -->
  <rect x="235" y="330" width="80" height="12" rx="2" fill="#EF4444" fill-opacity="0.2" />
  <rect x="235" y="348" width="150" height="12" rx="2" fill="#EF4444" fill-opacity="0.2" />
  <rect x="235" y="366" width="200" height="12" rx="2" fill="#EF4444" fill-opacity="0.2" />
  
  <!-- Trading panel -->
  <rect x="510" y="220" width="270" height="160" rx="4" fill="#334155" />
  
  <!-- Trading form elements -->
  <rect x="530" y="240" width="230" height="24" rx="4" fill="#475569" />
  <rect x="530" y="274" width="230" height="24" rx="4" fill="#475569" />
  <rect x="530" y="308" width="110" height="24" rx="4" fill="#10B981" />
  <rect x="650" y="308" width="110" height="24" rx="4" fill="#EF4444" />
  <rect x="530" y="342" width="230" height="24" rx="4" fill="#3B82F6" />
</svg> 