<svg width="1200" height="630" viewBox="0 0 1200 630" fill="none" xmlns="http://www.w3.org/2000/svg">
  <!-- Background -->
  <rect width="1200" height="630" fill="#f8fafc" />
  
  <!-- Grid pattern -->
  <path d="M0 40H1200M0 80H1200M0 120H1200M0 160H1200M0 200H1200M0 240H1200M0 280H1200M0 320H1200M0 360H1200M0 400H1200M0 440H1200M0 480H1200M0 520H1200M0 560H1200M0 600H1200M40 0V630M80 0V630M120 0V630M160 0V630M200 0V630M240 0V630M280 0V630M320 0V630M360 0V630M400 0V630M440 0V630M480 0V630M520 0V630M560 0V630M600 0V630M640 0V630M680 0V630M720 0V630M760 0V630M800 0V630M840 0V630M880 0V630M920 0V630M960 0V630M1000 0V630M1040 0V630M1080 0V630M1120 0V630M1160 0V630" stroke="#e2e8f0" stroke-width="0.5" />
  
  <!-- Logo shape -->
  <rect x="475" y="215" width="250" height="200" rx="20" fill="#2563eb" />
  
  <!-- Financial chart line -->
  <path d="M475 350 Q 550 250, 600 300 T 725 250" stroke="white" stroke-width="6" fill="none" />
  
  <!-- Text placeholder -->
  <rect x="400" y="445" width="400" height="40" rx="8" fill="#64748b" />
  <rect x="450" y="495" width="300" height="20" rx="4" fill="#94a3b8" />
</svg> 